<mxfile host="65bd71144e" pages="3">
    <diagram id="HFJfxVVI58Yu54D8smUW" name="Modelo de Dominio">
        <mxGraphModel dx="960" dy="518" grid="0" gridSize="10" guides="1" tooltips="1" connect="1" arrows="1" fold="1" page="1" pageScale="1" pageWidth="827" pageHeight="1169" math="0" shadow="0">
            <root>
                <mxCell id="0"/>
                <mxCell id="1" parent="0"/>
                <mxCell id="Y2LTUR7qZ5GxnNSmq3DX-5" value="Consulta" style="swimlane;fontStyle=1;align=center;verticalAlign=top;childLayout=stackLayout;horizontal=1;startSize=26;horizontalStack=0;resizeParent=1;resizeParentMax=0;resizeLast=0;collapsible=1;marginBottom=0;" parent="1" vertex="1">
                    <mxGeometry x="170" y="290" width="160" height="98" as="geometry"/>
                </mxCell>
                <mxCell id="Y2LTUR7qZ5GxnNSmq3DX-6" value="- data: Date&#10;- horaInicial: Date&#10;- horaFinal: Date&#10;- Paciente" style="text;strokeColor=none;fillColor=none;align=left;verticalAlign=top;spacingLeft=4;spacingRight=4;overflow=hidden;rotatable=0;points=[[0,0.5],[1,0.5]];portConstraint=eastwest;" parent="Y2LTUR7qZ5GxnNSmq3DX-5" vertex="1">
                    <mxGeometry y="26" width="160" height="64" as="geometry"/>
                </mxCell>
                <mxCell id="Y2LTUR7qZ5GxnNSmq3DX-7" value="" style="line;strokeWidth=1;fillColor=none;align=left;verticalAlign=middle;spacingTop=-1;spacingLeft=3;spacingRight=3;rotatable=0;labelPosition=right;points=[];portConstraint=eastwest;strokeColor=inherit;" parent="Y2LTUR7qZ5GxnNSmq3DX-5" vertex="1">
                    <mxGeometry y="90" width="160" height="8" as="geometry"/>
                </mxCell>
                <mxCell id="Y2LTUR7qZ5GxnNSmq3DX-9" value="Paciente" style="swimlane;fontStyle=1;align=center;verticalAlign=top;childLayout=stackLayout;horizontal=1;startSize=26;horizontalStack=0;resizeParent=1;resizeParentMax=0;resizeLast=0;collapsible=1;marginBottom=0;" parent="1" vertex="1">
                    <mxGeometry x="500" y="275" width="160" height="128" as="geometry"/>
                </mxCell>
                <mxCell id="Y2LTUR7qZ5GxnNSmq3DX-10" value="- cpf: String&#10;- nome: String&#10;- dataNascimento: String&#10;- idade: String&#10;- consultas: Consulta[]" style="text;strokeColor=none;fillColor=none;align=left;verticalAlign=top;spacingLeft=4;spacingRight=4;overflow=hidden;rotatable=0;points=[[0,0.5],[1,0.5]];portConstraint=eastwest;" parent="Y2LTUR7qZ5GxnNSmq3DX-9" vertex="1">
                    <mxGeometry y="26" width="160" height="94" as="geometry"/>
                </mxCell>
                <mxCell id="Y2LTUR7qZ5GxnNSmq3DX-11" value="" style="line;strokeWidth=1;fillColor=none;align=left;verticalAlign=middle;spacingTop=-1;spacingLeft=3;spacingRight=3;rotatable=0;labelPosition=right;points=[];portConstraint=eastwest;strokeColor=inherit;" parent="Y2LTUR7qZ5GxnNSmq3DX-9" vertex="1">
                    <mxGeometry y="120" width="160" height="8" as="geometry"/>
                </mxCell>
                <mxCell id="Y2LTUR7qZ5GxnNSmq3DX-13" value="" style="endArrow=diamondThin;endFill=1;endSize=24;html=1;" parent="1" source="Y2LTUR7qZ5GxnNSmq3DX-5" target="Y2LTUR7qZ5GxnNSmq3DX-9" edge="1">
                    <mxGeometry width="160" relative="1" as="geometry">
                        <mxPoint x="339" y="336" as="sourcePoint"/>
                        <mxPoint x="478.20000000000005" y="333.2159999999999" as="targetPoint"/>
                    </mxGeometry>
                </mxCell>
                <mxCell id="Y2LTUR7qZ5GxnNSmq3DX-14" value="Agenda" style="edgeLabel;html=1;align=center;verticalAlign=middle;resizable=0;points=[];" parent="Y2LTUR7qZ5GxnNSmq3DX-13" vertex="1" connectable="0">
                    <mxGeometry x="0.1316" y="2" relative="1" as="geometry">
                        <mxPoint x="-18" as="offset"/>
                    </mxGeometry>
                </mxCell>
                <mxCell id="Y2LTUR7qZ5GxnNSmq3DX-15" value="0,N" style="edgeLabel;html=1;align=center;verticalAlign=middle;resizable=0;points=[];" parent="Y2LTUR7qZ5GxnNSmq3DX-13" vertex="1" connectable="0">
                    <mxGeometry x="-0.5708" y="2" relative="1" as="geometry">
                        <mxPoint x="-13" y="1" as="offset"/>
                    </mxGeometry>
                </mxCell>
                <mxCell id="Y2LTUR7qZ5GxnNSmq3DX-16" value="1" style="edgeLabel;html=1;align=center;verticalAlign=middle;resizable=0;points=[];" parent="Y2LTUR7qZ5GxnNSmq3DX-13" vertex="1" connectable="0">
                    <mxGeometry x="0.5474" relative="1" as="geometry">
                        <mxPoint x="-5" y="-1" as="offset"/>
                    </mxGeometry>
                </mxCell>
                <mxCell id="-lOfkbF1hdAEw82l2ofO-1" style="edgeStyle=none;html=1;" edge="1" parent="1" source="DPsEps3UTi3878fQlMKQ-1" target="Y2LTUR7qZ5GxnNSmq3DX-5">
                    <mxGeometry relative="1" as="geometry"/>
                </mxCell>
                <mxCell id="-lOfkbF1hdAEw82l2ofO-2" style="edgeStyle=none;html=1;" edge="1" parent="1" source="DPsEps3UTi3878fQlMKQ-1" target="Y2LTUR7qZ5GxnNSmq3DX-9">
                    <mxGeometry relative="1" as="geometry"/>
                </mxCell>
                <mxCell id="DPsEps3UTi3878fQlMKQ-1" value="Consultorio" style="swimlane;fontStyle=1;align=center;verticalAlign=top;childLayout=stackLayout;horizontal=1;startSize=26;horizontalStack=0;resizeParent=1;resizeParentMax=0;resizeLast=0;collapsible=1;marginBottom=0;" vertex="1" parent="1">
                    <mxGeometry x="324" y="114" width="164" height="77" as="geometry"/>
                </mxCell>
                <mxCell id="DPsEps3UTi3878fQlMKQ-2" value="- pacientes: Paciente[]&#10;- consultas: Consulta[]" style="text;strokeColor=none;fillColor=none;align=left;verticalAlign=top;spacingLeft=4;spacingRight=4;overflow=hidden;rotatable=0;points=[[0,0.5],[1,0.5]];portConstraint=eastwest;" vertex="1" parent="DPsEps3UTi3878fQlMKQ-1">
                    <mxGeometry y="26" width="164" height="43" as="geometry"/>
                </mxCell>
                <mxCell id="DPsEps3UTi3878fQlMKQ-3" value="" style="line;strokeWidth=1;fillColor=none;align=left;verticalAlign=middle;spacingTop=-1;spacingLeft=3;spacingRight=3;rotatable=0;labelPosition=right;points=[];portConstraint=eastwest;strokeColor=inherit;" vertex="1" parent="DPsEps3UTi3878fQlMKQ-1">
                    <mxGeometry y="69" width="164" height="8" as="geometry"/>
                </mxCell>
            </root>
        </mxGraphModel>
    </diagram>
    <diagram id="bq_8R66FXT4QPFCOYcDD" name="Diagrama-Componentes">
        <mxGraphModel dx="1680" dy="906" grid="1" gridSize="10" guides="1" tooltips="1" connect="1" arrows="1" fold="1" page="1" pageScale="1" pageWidth="850" pageHeight="1100" math="0" shadow="0">
            <root>
                <mxCell id="0"/>
                <mxCell id="1" parent="0"/>
                <mxCell id="kJk2lGCovGsyjoH442p8-1" value="&lt;div&gt;Src package&lt;br&gt;&lt;/div&gt;" style="shape=folder;fontStyle=1;spacingTop=10;tabWidth=40;tabHeight=14;tabPosition=left;html=1;whiteSpace=wrap;fillColor=none;" parent="1" vertex="1">
                    <mxGeometry x="30" y="90" width="760" height="440" as="geometry"/>
                </mxCell>
                <mxCell id="kJk2lGCovGsyjoH442p8-2" value="Controllers" style="shape=folder;fontStyle=1;spacingTop=10;tabWidth=40;tabHeight=14;tabPosition=left;html=1;whiteSpace=wrap;" parent="1" vertex="1">
                    <mxGeometry x="60" y="120" width="260" height="190" as="geometry"/>
                </mxCell>
                <mxCell id="kJk2lGCovGsyjoH442p8-3" value="Models" style="shape=folder;fontStyle=1;spacingTop=10;tabWidth=40;tabHeight=14;tabPosition=left;html=1;whiteSpace=wrap;" parent="1" vertex="1">
                    <mxGeometry x="550" y="376.62" width="220" height="135.88" as="geometry"/>
                </mxCell>
                <mxCell id="kJk2lGCovGsyjoH442p8-4" value="View" style="shape=folder;fontStyle=1;spacingTop=10;tabWidth=40;tabHeight=14;tabPosition=left;html=1;whiteSpace=wrap;" parent="1" vertex="1">
                    <mxGeometry x="60" y="350" width="281.67" height="162.5" as="geometry"/>
                </mxCell>
                <mxCell id="kJk2lGCovGsyjoH442p8-6" value="Validations" style="shape=folder;fontStyle=1;spacingTop=10;tabWidth=40;tabHeight=14;tabPosition=left;html=1;whiteSpace=wrap;" parent="1" vertex="1">
                    <mxGeometry x="362.5" y="372.5" width="170" height="140" as="geometry"/>
                </mxCell>
                <mxCell id="kJk2lGCovGsyjoH442p8-7" value="Services" style="shape=folder;fontStyle=1;spacingTop=10;tabWidth=40;tabHeight=14;tabPosition=left;html=1;whiteSpace=wrap;" parent="1" vertex="1">
                    <mxGeometry x="355" y="130" width="185" height="150" as="geometry"/>
                </mxCell>
                <mxCell id="kJk2lGCovGsyjoH442p8-11" value="MenuAppController" style="shape=module;align=left;spacingLeft=20;align=center;verticalAlign=top;whiteSpace=wrap;html=1;" parent="1" vertex="1">
                    <mxGeometry x="75" y="270" width="230" height="30" as="geometry"/>
                </mxCell>
                <mxCell id="kJk2lGCovGsyjoH442p8-12" value="MenuView" style="shape=module;align=left;spacingLeft=20;align=center;verticalAlign=top;whiteSpace=wrap;html=1;" parent="1" vertex="1">
                    <mxGeometry x="65" y="372.5" width="125" height="30" as="geometry"/>
                </mxCell>
                <mxCell id="ZXW0dsaNZOwETkUSfEKi-1" value="ConsultorioService" style="shape=module;align=left;spacingLeft=20;align=center;verticalAlign=top;whiteSpace=wrap;html=1;" vertex="1" parent="1">
                    <mxGeometry x="360" y="230" width="170" height="37.5" as="geometry"/>
                </mxCell>
                <mxCell id="ZXW0dsaNZOwETkUSfEKi-2" value="Consultorio" style="shape=module;align=left;spacingLeft=20;align=center;verticalAlign=top;whiteSpace=wrap;html=1;" vertex="1" parent="1">
                    <mxGeometry x="577.5" y="401.62" width="165" height="30" as="geometry"/>
                </mxCell>
                <mxCell id="ZXW0dsaNZOwETkUSfEKi-3" value="Consulta" style="shape=module;align=left;spacingLeft=20;align=center;verticalAlign=top;whiteSpace=wrap;html=1;" vertex="1" parent="1">
                    <mxGeometry x="570" y="459.12" width="172.5" height="20" as="geometry"/>
                </mxCell>
                <mxCell id="ZXW0dsaNZOwETkUSfEKi-4" value="Paciente" style="shape=module;align=left;spacingLeft=20;align=center;verticalAlign=top;whiteSpace=wrap;html=1;" vertex="1" parent="1">
                    <mxGeometry x="570" y="486.62" width="172.5" height="20" as="geometry"/>
                </mxCell>
                <mxCell id="ZXW0dsaNZOwETkUSfEKi-5" value="ConsultaController" style="shape=module;align=left;spacingLeft=20;align=center;verticalAlign=top;whiteSpace=wrap;html=1;" vertex="1" parent="1">
                    <mxGeometry x="75" y="230" width="230" height="30" as="geometry"/>
                </mxCell>
                <mxCell id="ZXW0dsaNZOwETkUSfEKi-6" value="PacienteController" style="shape=module;align=left;spacingLeft=20;align=center;verticalAlign=top;whiteSpace=wrap;html=1;" vertex="1" parent="1">
                    <mxGeometry x="75" y="170" width="230" height="30" as="geometry"/>
                </mxCell>
                <mxCell id="ZXW0dsaNZOwETkUSfEKi-7" value="ConsultorioView" style="shape=module;align=left;spacingLeft=20;align=center;verticalAlign=top;whiteSpace=wrap;html=1;" vertex="1" parent="1">
                    <mxGeometry x="65" y="470" width="115" height="30" as="geometry"/>
                </mxCell>
                <mxCell id="ZXW0dsaNZOwETkUSfEKi-8" value="ConsultorioView" style="shape=module;align=left;spacingLeft=20;align=center;verticalAlign=top;whiteSpace=wrap;html=1;" vertex="1" parent="1">
                    <mxGeometry x="200" y="372.5" width="135" height="30" as="geometry"/>
                </mxCell>
                <mxCell id="ZXW0dsaNZOwETkUSfEKi-9" value="PacienteView" style="shape=module;align=left;spacingLeft=20;align=center;verticalAlign=top;whiteSpace=wrap;html=1;" vertex="1" parent="1">
                    <mxGeometry x="200" y="470" width="135" height="30" as="geometry"/>
                </mxCell>
                <mxCell id="ZXW0dsaNZOwETkUSfEKi-10" value="ConsultaValidation" style="shape=module;align=left;spacingLeft=20;align=center;verticalAlign=top;whiteSpace=wrap;html=1;" vertex="1" parent="1">
                    <mxGeometry x="380" y="400" width="135" height="30" as="geometry"/>
                </mxCell>
                <mxCell id="ZXW0dsaNZOwETkUSfEKi-11" value="PacienteValidation" style="shape=module;align=left;spacingLeft=20;align=center;verticalAlign=top;whiteSpace=wrap;html=1;" vertex="1" parent="1">
                    <mxGeometry x="377.5" y="470" width="135" height="30" as="geometry"/>
                </mxCell>
                <mxCell id="ZXW0dsaNZOwETkUSfEKi-12" value="utils" style="shape=folder;fontStyle=1;spacingTop=10;tabWidth=40;tabHeight=14;tabPosition=left;html=1;" vertex="1" parent="1">
                    <mxGeometry x="670" y="110" width="112.5" height="90" as="geometry"/>
                </mxCell>
                <mxCell id="ZXW0dsaNZOwETkUSfEKi-13" value="dateUtils" style="shape=module;align=left;spacingLeft=20;align=center;verticalAlign=top;" vertex="1" parent="1">
                    <mxGeometry x="670" y="170" width="107.5" height="23.75" as="geometry"/>
                </mxCell>
            </root>
        </mxGraphModel>
    </diagram>
    <diagram id="maHRvPjVLVoxn2Zjw4gI" name="Cadastrar-Paciente">
        <mxGraphModel dx="1680" dy="906" grid="0" gridSize="10" guides="1" tooltips="1" connect="1" arrows="1" fold="1" page="1" pageScale="1" pageWidth="827" pageHeight="1169" background="none" math="0" shadow="0">
            <root>
                <mxCell id="0"/>
                <mxCell id="1" parent="0"/>
                <mxCell id="7-28SWe_pGGK2TZbxK85-4" style="edgeStyle=none;html=1;" edge="1" parent="1">
                    <mxGeometry relative="1" as="geometry">
                        <mxPoint x="94.5" y="160" as="sourcePoint"/>
                        <mxPoint x="269.5" y="160" as="targetPoint"/>
                        <Array as="points">
                            <mxPoint x="180" y="160"/>
                        </Array>
                    </mxGeometry>
                </mxCell>
                <mxCell id="7-28SWe_pGGK2TZbxK85-5" value="exibeMenuPrincipal" style="edgeLabel;html=1;align=center;verticalAlign=middle;resizable=0;points=[];" vertex="1" connectable="0" parent="7-28SWe_pGGK2TZbxK85-4">
                    <mxGeometry x="-0.2376" y="-4" relative="1" as="geometry">
                        <mxPoint x="19" y="-14" as="offset"/>
                    </mxGeometry>
                </mxCell>
                <mxCell id="7-28SWe_pGGK2TZbxK85-6" style="edgeStyle=none;html=1;" edge="1" parent="1" source="7-28SWe_pGGK2TZbxK85-1" target="7-28SWe_pGGK2TZbxK85-2">
                    <mxGeometry relative="1" as="geometry">
                        <Array as="points">
                            <mxPoint x="160" y="190"/>
                        </Array>
                    </mxGeometry>
                </mxCell>
                <mxCell id="7-28SWe_pGGK2TZbxK85-7" value="LeEntrada&lt;span style=&quot;color: rgba(0, 0, 0, 0); font-family: monospace; font-size: 0px; text-align: start; background-color: rgb(42, 37, 47);&quot;&gt;%3CmxGraphModel%3E%3Croot%3E%3CmxCell%20id%3D%220%22%2F%3E%3CmxCell%20id%3D%221%22%20parent%3D%220%22%2F%3E%3CmxCell%20id%3D%222%22%20value%3D%22ConsultaValidation%22%20style%3D%22shape%3Dmodule%3Balign%3Dleft%3BspacingLeft%3D20%3Balign%3Dcenter%3BverticalAlign%3Dtop%3BwhiteSpace%3Dwrap%3Bhtml%3D1%3B%22%20vertex%3D%221%22%20parent%3D%221%22%3E%3CmxGeometry%20x%3D%22380%22%20y%3D%22400%22%20width%3D%22135%22%20height%3D%2230%22%20as%3D%22geometry%22%2F%3E%3C%2FmxCell%3E%3C%2Froot%3E%3C%2FmxGraphModel%3E()&lt;/span&gt;" style="edgeLabel;html=1;align=center;verticalAlign=middle;resizable=0;points=[];" vertex="1" connectable="0" parent="7-28SWe_pGGK2TZbxK85-6">
                    <mxGeometry x="-0.006" y="-2" relative="1" as="geometry">
                        <mxPoint y="-12" as="offset"/>
                    </mxGeometry>
                </mxCell>
                <mxCell id="7-28SWe_pGGK2TZbxK85-11" style="edgeStyle=none;html=1;" edge="1" parent="1" source="7-28SWe_pGGK2TZbxK85-1" target="7-28SWe_pGGK2TZbxK85-2">
                    <mxGeometry relative="1" as="geometry">
                        <Array as="points">
                            <mxPoint x="220" y="250"/>
                        </Array>
                    </mxGeometry>
                </mxCell>
                <mxCell id="7-28SWe_pGGK2TZbxK85-12" value="exibeMenuPaciente" style="edgeLabel;html=1;align=center;verticalAlign=middle;resizable=0;points=[];" vertex="1" connectable="0" parent="7-28SWe_pGGK2TZbxK85-11">
                    <mxGeometry x="-0.0142" y="-1" relative="1" as="geometry">
                        <mxPoint y="-12" as="offset"/>
                    </mxGeometry>
                </mxCell>
                <mxCell id="7-28SWe_pGGK2TZbxK85-20" style="edgeStyle=none;html=1;" edge="1" parent="1">
                    <mxGeometry relative="1" as="geometry">
                        <mxPoint x="94.32352941176464" y="329" as="sourcePoint"/>
                        <mxPoint x="469.5" y="329" as="targetPoint"/>
                        <Array as="points">
                            <mxPoint x="360" y="329"/>
                        </Array>
                    </mxGeometry>
                </mxCell>
                <mxCell id="7-28SWe_pGGK2TZbxK85-21" value="cadastrarPaciente" style="edgeLabel;html=1;align=center;verticalAlign=middle;resizable=0;points=[];" vertex="1" connectable="0" parent="7-28SWe_pGGK2TZbxK85-20">
                    <mxGeometry x="-0.02" y="-1" relative="1" as="geometry">
                        <mxPoint x="92" y="-11" as="offset"/>
                    </mxGeometry>
                </mxCell>
                <mxCell id="7-28SWe_pGGK2TZbxK85-1" value="MenuAppController" style="shape=umlLifeline;perimeter=lifelinePerimeter;whiteSpace=wrap;html=1;container=1;collapsible=0;recursiveResize=0;outlineConnect=0;" vertex="1" parent="1">
                    <mxGeometry x="40" y="80" width="110" height="840" as="geometry"/>
                </mxCell>
                <mxCell id="7-28SWe_pGGK2TZbxK85-8" style="edgeStyle=none;html=1;" edge="1" parent="1" source="7-28SWe_pGGK2TZbxK85-2" target="7-28SWe_pGGK2TZbxK85-1">
                    <mxGeometry relative="1" as="geometry">
                        <Array as="points">
                            <mxPoint x="180" y="220"/>
                        </Array>
                    </mxGeometry>
                </mxCell>
                <mxCell id="7-28SWe_pGGK2TZbxK85-10" value="Entrada valor: 1" style="edgeLabel;html=1;align=center;verticalAlign=middle;resizable=0;points=[];" vertex="1" connectable="0" parent="7-28SWe_pGGK2TZbxK85-8">
                    <mxGeometry x="-0.1669" y="1" relative="1" as="geometry">
                        <mxPoint x="-17" y="-11" as="offset"/>
                    </mxGeometry>
                </mxCell>
                <mxCell id="7-28SWe_pGGK2TZbxK85-27" style="edgeStyle=none;html=1;" edge="1" parent="1">
                    <mxGeometry relative="1" as="geometry">
                        <mxPoint x="269.32352941176464" y="374" as="sourcePoint"/>
                        <mxPoint x="709.5" y="374" as="targetPoint"/>
                    </mxGeometry>
                </mxCell>
                <mxCell id="7-28SWe_pGGK2TZbxK85-28" value="CPF" style="edgeLabel;html=1;align=center;verticalAlign=middle;resizable=0;points=[];" vertex="1" connectable="0" parent="7-28SWe_pGGK2TZbxK85-27">
                    <mxGeometry x="-0.5763" y="-1" relative="1" as="geometry">
                        <mxPoint y="-11" as="offset"/>
                    </mxGeometry>
                </mxCell>
                <mxCell id="7-28SWe_pGGK2TZbxK85-42" style="edgeStyle=none;html=1;" edge="1" parent="1">
                    <mxGeometry relative="1" as="geometry">
                        <mxPoint x="269.32352941176464" y="471" as="sourcePoint"/>
                        <mxPoint x="709.5" y="471" as="targetPoint"/>
                        <Array as="points">
                            <mxPoint x="540" y="471"/>
                        </Array>
                    </mxGeometry>
                </mxCell>
                <mxCell id="7-28SWe_pGGK2TZbxK85-43" value="Nome" style="edgeLabel;html=1;align=center;verticalAlign=middle;resizable=0;points=[];" vertex="1" connectable="0" parent="7-28SWe_pGGK2TZbxK85-42">
                    <mxGeometry x="-0.6604" relative="1" as="geometry">
                        <mxPoint x="15" y="-10" as="offset"/>
                    </mxGeometry>
                </mxCell>
                <mxCell id="7-28SWe_pGGK2TZbxK85-50" style="edgeStyle=none;html=1;" edge="1" parent="1">
                    <mxGeometry relative="1" as="geometry">
                        <mxPoint x="269.32352941176464" y="553" as="sourcePoint"/>
                        <mxPoint x="709.5" y="553" as="targetPoint"/>
                        <Array as="points">
                            <mxPoint x="550" y="553"/>
                        </Array>
                    </mxGeometry>
                </mxCell>
                <mxCell id="7-28SWe_pGGK2TZbxK85-51" value="DataNascimento" style="edgeLabel;html=1;align=center;verticalAlign=middle;resizable=0;points=[];" vertex="1" connectable="0" parent="7-28SWe_pGGK2TZbxK85-50">
                    <mxGeometry x="-0.7059" y="2" relative="1" as="geometry">
                        <mxPoint x="25" y="-8" as="offset"/>
                    </mxGeometry>
                </mxCell>
                <mxCell id="7-28SWe_pGGK2TZbxK85-2" value="Usuario" style="shape=umlLifeline;participant=umlActor;perimeter=lifelinePerimeter;whiteSpace=wrap;html=1;container=1;collapsible=0;recursiveResize=0;verticalAlign=top;spacingTop=36;outlineConnect=0;" vertex="1" parent="1">
                    <mxGeometry x="260" y="80" width="20" height="840" as="geometry"/>
                </mxCell>
                <mxCell id="7-28SWe_pGGK2TZbxK85-15" style="edgeStyle=none;html=1;" edge="1" parent="7-28SWe_pGGK2TZbxK85-2">
                    <mxGeometry relative="1" as="geometry">
                        <mxPoint x="10" y="229" as="sourcePoint"/>
                        <mxPoint x="-165.33333333333337" y="229" as="targetPoint"/>
                        <Array as="points">
                            <mxPoint x="-24.670000000000016" y="229"/>
                        </Array>
                    </mxGeometry>
                </mxCell>
                <mxCell id="7-28SWe_pGGK2TZbxK85-16" value="Entrada valor: 1" style="edgeLabel;html=1;align=center;verticalAlign=middle;resizable=0;points=[];" vertex="1" connectable="0" parent="7-28SWe_pGGK2TZbxK85-15">
                    <mxGeometry x="-0.1669" y="1" relative="1" as="geometry">
                        <mxPoint x="-17" y="-11" as="offset"/>
                    </mxGeometry>
                </mxCell>
                <mxCell id="7-28SWe_pGGK2TZbxK85-13" style="edgeStyle=none;html=1;" edge="1" parent="1" source="7-28SWe_pGGK2TZbxK85-1" target="7-28SWe_pGGK2TZbxK85-2">
                    <mxGeometry relative="1" as="geometry">
                        <mxPoint x="89.99666666666663" y="280" as="sourcePoint"/>
                        <mxPoint x="264.8300000000002" y="280" as="targetPoint"/>
                        <Array as="points">
                            <mxPoint x="155.33" y="280"/>
                        </Array>
                    </mxGeometry>
                </mxCell>
                <mxCell id="7-28SWe_pGGK2TZbxK85-14" value="LeEntrada&lt;span style=&quot;color: rgba(0, 0, 0, 0); font-family: monospace; font-size: 0px; text-align: start; background-color: rgb(42, 37, 47);&quot;&gt;%3CmxGraphModel%3E%3Croot%3E%3CmxCell%20id%3D%220%22%2F%3E%3CmxCell%20id%3D%221%22%20parent%3D%220%22%2F%3E%3CmxCell%20id%3D%222%22%20value%3D%22ConsultaValidation%22%20style%3D%22shape%3Dmodule%3Balign%3Dleft%3BspacingLeft%3D20%3Balign%3Dcenter%3BverticalAlign%3Dtop%3BwhiteSpace%3Dwrap%3Bhtml%3D1%3B%22%20vertex%3D%221%22%20parent%3D%221%22%3E%3CmxGeometry%20x%3D%22380%22%20y%3D%22400%22%20width%3D%22135%22%20height%3D%2230%22%20as%3D%22geometry%22%2F%3E%3C%2FmxCell%3E%3C%2Froot%3E%3C%2FmxGraphModel%3E()&lt;/span&gt;" style="edgeLabel;html=1;align=center;verticalAlign=middle;resizable=0;points=[];" vertex="1" connectable="0" parent="7-28SWe_pGGK2TZbxK85-13">
                    <mxGeometry x="-0.006" y="-2" relative="1" as="geometry">
                        <mxPoint y="-12" as="offset"/>
                    </mxGeometry>
                </mxCell>
                <mxCell id="7-28SWe_pGGK2TZbxK85-23" style="edgeStyle=none;html=1;" edge="1" parent="1">
                    <mxGeometry relative="1" as="geometry">
                        <mxPoint x="469.32352941176464" y="335" as="sourcePoint"/>
                        <mxPoint x="709.5" y="335" as="targetPoint"/>
                        <Array as="points">
                            <mxPoint x="550" y="335"/>
                        </Array>
                    </mxGeometry>
                </mxCell>
                <mxCell id="7-28SWe_pGGK2TZbxK85-24" value="cadastrarPaciente" style="edgeLabel;html=1;align=center;verticalAlign=middle;resizable=0;points=[];" vertex="1" connectable="0" parent="7-28SWe_pGGK2TZbxK85-23">
                    <mxGeometry x="-0.1215" y="1" relative="1" as="geometry">
                        <mxPoint x="15" y="-11" as="offset"/>
                    </mxGeometry>
                </mxCell>
                <mxCell id="7rCypQubDoip1W6Q_EGZ-6" style="edgeStyle=none;html=1;" edge="1" parent="1" source="7-28SWe_pGGK2TZbxK85-19" target="7rCypQubDoip1W6Q_EGZ-5">
                    <mxGeometry relative="1" as="geometry">
                        <Array as="points">
                            <mxPoint x="1060" y="740"/>
                        </Array>
                    </mxGeometry>
                </mxCell>
                <mxCell id="7rCypQubDoip1W6Q_EGZ-7" value="Exibe Mensagem de Paciente Cadastrado com sucesso" style="edgeLabel;html=1;align=center;verticalAlign=middle;resizable=0;points=[];" vertex="1" connectable="0" parent="7rCypQubDoip1W6Q_EGZ-6">
                    <mxGeometry x="-0.1309" y="2" relative="1" as="geometry">
                        <mxPoint x="30" y="-8" as="offset"/>
                    </mxGeometry>
                </mxCell>
                <mxCell id="7-28SWe_pGGK2TZbxK85-19" value="PacienteController" style="shape=umlLifeline;perimeter=lifelinePerimeter;whiteSpace=wrap;html=1;container=1;collapsible=0;recursiveResize=0;outlineConnect=0;" vertex="1" parent="1">
                    <mxGeometry x="400" y="80" width="140" height="840" as="geometry"/>
                </mxCell>
                <mxCell id="7-28SWe_pGGK2TZbxK85-25" style="edgeStyle=none;html=1;" edge="1" parent="1">
                    <mxGeometry relative="1" as="geometry">
                        <mxPoint x="709.5000000000002" y="355.76" as="sourcePoint"/>
                        <mxPoint x="269.32352941176464" y="355.76" as="targetPoint"/>
                    </mxGeometry>
                </mxCell>
                <mxCell id="7-28SWe_pGGK2TZbxK85-26" value="LeCPF" style="edgeLabel;html=1;align=center;verticalAlign=middle;resizable=0;points=[];" vertex="1" connectable="0" parent="7-28SWe_pGGK2TZbxK85-25">
                    <mxGeometry x="0.5725" y="1" relative="1" as="geometry">
                        <mxPoint y="-13" as="offset"/>
                    </mxGeometry>
                </mxCell>
                <mxCell id="7-28SWe_pGGK2TZbxK85-30" style="edgeStyle=none;html=1;" edge="1" parent="1">
                    <mxGeometry relative="1" as="geometry">
                        <mxPoint x="709.6666666666667" y="383" as="sourcePoint"/>
                        <mxPoint x="959.5000000000002" y="383" as="targetPoint"/>
                    </mxGeometry>
                </mxCell>
                <mxCell id="7-28SWe_pGGK2TZbxK85-31" value="validaCPF&lt;span style=&quot;color: rgba(0, 0, 0, 0); font-family: monospace; font-size: 0px; text-align: start; background-color: rgb(42, 37, 47);&quot;&gt;%3CmxGraphModel%3E%3Croot%3E%3CmxCell%20id%3D%220%22%2F%3E%3CmxCell%20id%3D%221%22%20parent%3D%220%22%2F%3E%3CmxCell%20id%3D%222%22%20value%3D%22ConsultorioService%22%20style%3D%22shape%3DumlLifeline%3Bperimeter%3DlifelinePerimeter%3BwhiteSpace%3Dwrap%3Bhtml%3D1%3Bcontainer%3D1%3Bcollapsible%3D0%3BrecursiveResize%3D0%3BoutlineConnect%3D0%3B%22%20vertex%3D%221%22%20parent%3D%221%22%3E%3CmxGeometry%20x%3D%22640%22%20y%3D%2280%22%20width%3D%22140%22%20height%3D%22680%22%20as%3D%22geometry%22%2F%3E%3C%2FmxCell%3E%3C%2Froot%3E%3C%2FmxGraphModel%3E&lt;/span&gt;" style="edgeLabel;html=1;align=center;verticalAlign=middle;resizable=0;points=[];" vertex="1" connectable="0" parent="7-28SWe_pGGK2TZbxK85-30">
                    <mxGeometry x="0.445" relative="1" as="geometry">
                        <mxPoint x="-110" y="-11" as="offset"/>
                    </mxGeometry>
                </mxCell>
                <mxCell id="7-28SWe_pGGK2TZbxK85-36" style="edgeStyle=none;html=1;" edge="1" parent="1">
                    <mxGeometry relative="1" as="geometry">
                        <mxPoint x="709.3235294117649" y="423" as="sourcePoint"/>
                        <mxPoint x="1170.5" y="423" as="targetPoint"/>
                        <Array as="points">
                            <mxPoint x="1060" y="423"/>
                        </Array>
                    </mxGeometry>
                </mxCell>
                <mxCell id="7-28SWe_pGGK2TZbxK85-37" value="buscaPacientePorCPF" style="edgeLabel;html=1;align=center;verticalAlign=middle;resizable=0;points=[];" vertex="1" connectable="0" parent="7-28SWe_pGGK2TZbxK85-36">
                    <mxGeometry x="-0.6585" relative="1" as="geometry">
                        <mxPoint x="32" y="-10" as="offset"/>
                    </mxGeometry>
                </mxCell>
                <mxCell id="7-28SWe_pGGK2TZbxK85-40" style="edgeStyle=none;html=1;" edge="1" parent="1">
                    <mxGeometry relative="1" as="geometry">
                        <mxPoint x="709.5" y="453" as="sourcePoint"/>
                        <mxPoint x="269.6666666666665" y="453" as="targetPoint"/>
                    </mxGeometry>
                </mxCell>
                <mxCell id="7-28SWe_pGGK2TZbxK85-41" value="LeNome" style="edgeLabel;html=1;align=center;verticalAlign=middle;resizable=0;points=[];" vertex="1" connectable="0" parent="7-28SWe_pGGK2TZbxK85-40">
                    <mxGeometry x="0.6491" y="-3" relative="1" as="geometry">
                        <mxPoint x="13" y="-9" as="offset"/>
                    </mxGeometry>
                </mxCell>
                <mxCell id="7-28SWe_pGGK2TZbxK85-48" style="edgeStyle=none;html=1;" edge="1" parent="1">
                    <mxGeometry relative="1" as="geometry">
                        <mxPoint x="709.5" y="523" as="sourcePoint"/>
                        <mxPoint x="269.32352941176464" y="523" as="targetPoint"/>
                        <Array as="points">
                            <mxPoint x="570" y="523"/>
                        </Array>
                    </mxGeometry>
                </mxCell>
                <mxCell id="7-28SWe_pGGK2TZbxK85-49" value="LeDataNascimento" style="edgeLabel;html=1;align=center;verticalAlign=middle;resizable=0;points=[];" vertex="1" connectable="0" parent="7-28SWe_pGGK2TZbxK85-48">
                    <mxGeometry x="0.6529" relative="1" as="geometry">
                        <mxPoint x="14" y="-10" as="offset"/>
                    </mxGeometry>
                </mxCell>
                <mxCell id="7-28SWe_pGGK2TZbxK85-52" style="edgeStyle=none;html=1;" edge="1" parent="1">
                    <mxGeometry relative="1" as="geometry">
                        <mxPoint x="709.6666666666665" y="562" as="sourcePoint"/>
                        <mxPoint x="959.5" y="562" as="targetPoint"/>
                        <Array as="points">
                            <mxPoint x="890" y="562"/>
                        </Array>
                    </mxGeometry>
                </mxCell>
                <mxCell id="7-28SWe_pGGK2TZbxK85-53" value="validaDataNascimento" style="edgeLabel;html=1;align=center;verticalAlign=middle;resizable=0;points=[];" vertex="1" connectable="0" parent="7-28SWe_pGGK2TZbxK85-52">
                    <mxGeometry x="-0.5489" relative="1" as="geometry">
                        <mxPoint x="14" y="-10" as="offset"/>
                    </mxGeometry>
                </mxCell>
                <mxCell id="7-28SWe_pGGK2TZbxK85-58" style="edgeStyle=none;html=1;" edge="1" parent="1">
                    <mxGeometry relative="1" as="geometry">
                        <mxPoint x="709.5" y="666" as="sourcePoint"/>
                        <mxPoint x="1170.5" y="666" as="targetPoint"/>
                        <Array as="points">
                            <mxPoint x="1020" y="666"/>
                        </Array>
                    </mxGeometry>
                </mxCell>
                <mxCell id="7-28SWe_pGGK2TZbxK85-59" value="adicionaPaciente" style="edgeLabel;html=1;align=center;verticalAlign=middle;resizable=0;points=[];" vertex="1" connectable="0" parent="7-28SWe_pGGK2TZbxK85-58">
                    <mxGeometry x="0.1909" y="3" relative="1" as="geometry">
                        <mxPoint x="-157" y="-9" as="offset"/>
                    </mxGeometry>
                </mxCell>
                <mxCell id="7rCypQubDoip1W6Q_EGZ-3" style="edgeStyle=none;html=1;" edge="1" parent="1" source="7-28SWe_pGGK2TZbxK85-22" target="7-28SWe_pGGK2TZbxK85-19">
                    <mxGeometry relative="1" as="geometry">
                        <Array as="points">
                            <mxPoint x="640" y="710"/>
                        </Array>
                    </mxGeometry>
                </mxCell>
                <mxCell id="7rCypQubDoip1W6Q_EGZ-4" value="Retorna verdadeiro em caso de sucesso" style="edgeLabel;html=1;align=center;verticalAlign=middle;resizable=0;points=[];" vertex="1" connectable="0" parent="7rCypQubDoip1W6Q_EGZ-3">
                    <mxGeometry x="-0.0959" y="-1" relative="1" as="geometry">
                        <mxPoint x="-11" y="-9" as="offset"/>
                    </mxGeometry>
                </mxCell>
                <mxCell id="7-28SWe_pGGK2TZbxK85-22" value="ConsultorioService" style="shape=umlLifeline;perimeter=lifelinePerimeter;whiteSpace=wrap;html=1;container=1;collapsible=0;recursiveResize=0;outlineConnect=0;" vertex="1" parent="1">
                    <mxGeometry x="640" y="80" width="140" height="840" as="geometry"/>
                </mxCell>
                <mxCell id="7-28SWe_pGGK2TZbxK85-32" style="edgeStyle=none;html=1;entryX=0.502;entryY=0.556;entryDx=0;entryDy=0;entryPerimeter=0;" edge="1" parent="1">
                    <mxGeometry relative="1" as="geometry">
                        <mxPoint x="959.5" y="402.0400000000002" as="sourcePoint"/>
                        <mxPoint x="710.2800000000002" y="402.0400000000002" as="targetPoint"/>
                    </mxGeometry>
                </mxCell>
                <mxCell id="7-28SWe_pGGK2TZbxK85-33" value="CPFValido" style="edgeLabel;html=1;align=center;verticalAlign=middle;resizable=0;points=[];" vertex="1" connectable="0" parent="7-28SWe_pGGK2TZbxK85-32">
                    <mxGeometry x="0.2384" y="-3" relative="1" as="geometry">
                        <mxPoint x="85" y="-5" as="offset"/>
                    </mxGeometry>
                </mxCell>
                <mxCell id="7-28SWe_pGGK2TZbxK85-46" style="edgeStyle=none;html=1;" edge="1" parent="1">
                    <mxGeometry relative="1" as="geometry">
                        <mxPoint x="959.5" y="503" as="sourcePoint"/>
                        <mxPoint x="709.3235294117649" y="503" as="targetPoint"/>
                        <Array as="points">
                            <mxPoint x="870" y="503"/>
                        </Array>
                    </mxGeometry>
                </mxCell>
                <mxCell id="7-28SWe_pGGK2TZbxK85-47" value="NomeValido" style="edgeLabel;html=1;align=center;verticalAlign=middle;resizable=0;points=[];" vertex="1" connectable="0" parent="7-28SWe_pGGK2TZbxK85-46">
                    <mxGeometry x="-0.4517" y="2" relative="1" as="geometry">
                        <mxPoint x="-1" y="-12" as="offset"/>
                    </mxGeometry>
                </mxCell>
                <mxCell id="7-28SWe_pGGK2TZbxK85-54" style="edgeStyle=none;html=1;" edge="1" parent="1">
                    <mxGeometry relative="1" as="geometry">
                        <mxPoint x="959.5" y="583" as="sourcePoint"/>
                        <mxPoint x="709.3235294117649" y="583" as="targetPoint"/>
                        <Array as="points">
                            <mxPoint x="870" y="583"/>
                        </Array>
                    </mxGeometry>
                </mxCell>
                <mxCell id="7-28SWe_pGGK2TZbxK85-55" value="dataNascimentoValido" style="edgeLabel;html=1;align=center;verticalAlign=middle;resizable=0;points=[];" vertex="1" connectable="0" parent="7-28SWe_pGGK2TZbxK85-54">
                    <mxGeometry x="-0.425" y="-2" relative="1" as="geometry">
                        <mxPoint x="2" y="-8" as="offset"/>
                    </mxGeometry>
                </mxCell>
                <mxCell id="7-28SWe_pGGK2TZbxK85-29" value="PacienteValidation" style="shape=umlLifeline;perimeter=lifelinePerimeter;whiteSpace=wrap;html=1;container=1;collapsible=0;recursiveResize=0;outlineConnect=0;" vertex="1" parent="1">
                    <mxGeometry x="890" y="80" width="140" height="840" as="geometry"/>
                </mxCell>
                <mxCell id="7-28SWe_pGGK2TZbxK85-38" style="edgeStyle=none;html=1;" edge="1" parent="1">
                    <mxGeometry relative="1" as="geometry">
                        <mxPoint x="1170.5" y="444" as="sourcePoint"/>
                        <mxPoint x="709.3235294117649" y="444" as="targetPoint"/>
                        <Array as="points">
                            <mxPoint x="1080" y="444"/>
                        </Array>
                    </mxGeometry>
                </mxCell>
                <mxCell id="7-28SWe_pGGK2TZbxK85-39" value="PacienteNaoExistente" style="edgeLabel;html=1;align=center;verticalAlign=middle;resizable=0;points=[];" vertex="1" connectable="0" parent="7-28SWe_pGGK2TZbxK85-38">
                    <mxGeometry x="-0.5393" y="-2" relative="1" as="geometry">
                        <mxPoint y="-7" as="offset"/>
                    </mxGeometry>
                </mxCell>
                <mxCell id="7rCypQubDoip1W6Q_EGZ-1" style="edgeStyle=none;html=1;" edge="1" parent="1">
                    <mxGeometry relative="1" as="geometry">
                        <mxPoint x="1170.5" y="692" as="sourcePoint"/>
                        <mxPoint x="709.5" y="692" as="targetPoint"/>
                        <Array as="points">
                            <mxPoint x="710" y="692"/>
                        </Array>
                    </mxGeometry>
                </mxCell>
                <mxCell id="7rCypQubDoip1W6Q_EGZ-2" value="Retorna verdadeiro em caso de paciente adicionado com sucesso" style="edgeLabel;html=1;align=center;verticalAlign=middle;resizable=0;points=[];" vertex="1" connectable="0" parent="7rCypQubDoip1W6Q_EGZ-1">
                    <mxGeometry x="0.0403" y="-3" relative="1" as="geometry">
                        <mxPoint y="-8" as="offset"/>
                    </mxGeometry>
                </mxCell>
                <mxCell id="7-28SWe_pGGK2TZbxK85-35" value="ConsultorioRepository" style="shape=umlLifeline;perimeter=lifelinePerimeter;whiteSpace=wrap;html=1;container=1;collapsible=0;recursiveResize=0;outlineConnect=0;" vertex="1" parent="1">
                    <mxGeometry x="1101" y="80" width="140" height="840" as="geometry"/>
                </mxCell>
                <mxCell id="7-28SWe_pGGK2TZbxK85-44" style="edgeStyle=none;html=1;" edge="1" parent="1">
                    <mxGeometry relative="1" as="geometry">
                        <mxPoint x="709.3235294117649" y="483" as="sourcePoint"/>
                        <mxPoint x="959.5" y="483" as="targetPoint"/>
                        <Array as="points">
                            <mxPoint x="880" y="483"/>
                        </Array>
                    </mxGeometry>
                </mxCell>
                <mxCell id="7-28SWe_pGGK2TZbxK85-45" value="validaNome&lt;span style=&quot;color: rgba(0, 0, 0, 0); font-family: monospace; font-size: 0px; text-align: start; background-color: rgb(42, 37, 47);&quot;&gt;%3CmxGraphModel%3E%3Croot%3E%3CmxCell%20id%3D%220%22%2F%3E%3CmxCell%20id%3D%221%22%20parent%3D%220%22%2F%3E%3CmxCell%20id%3D%222%22%20value%3D%22ConsultorioService%22%20style%3D%22shape%3DumlLifeline%3Bperimeter%3DlifelinePerimeter%3BwhiteSpace%3Dwrap%3Bhtml%3D1%3Bcontainer%3D1%3Bcollapsible%3D0%3BrecursiveResize%3D0%3BoutlineConnect%3D0%3B%22%20vertex%3D%221%22%20parent%3D%221%22%3E%3CmxGeometry%20x%3D%22640%22%20y%3D%2280%22%20width%3D%22140%22%20height%3D%22680%22%20as%3D%22geometry%22%2F%3E%3C%2FmxCell%3E%3C%2Froot%3E%3C%2FmxGraphModel%3E&lt;/span&gt;" style="edgeLabel;html=1;align=center;verticalAlign=middle;resizable=0;points=[];" vertex="1" connectable="0" parent="7-28SWe_pGGK2TZbxK85-44">
                    <mxGeometry x="0.445" relative="1" as="geometry">
                        <mxPoint x="-110" y="-11" as="offset"/>
                    </mxGeometry>
                </mxCell>
                <mxCell id="7-28SWe_pGGK2TZbxK85-56" style="edgeStyle=none;html=1;" edge="1" parent="1">
                    <mxGeometry relative="1" as="geometry">
                        <mxPoint x="709.3235294117649" y="615.9999999999998" as="sourcePoint"/>
                        <mxPoint x="709.3235294117649" y="635.9999999999998" as="targetPoint"/>
                        <Array as="points">
                            <mxPoint x="890" y="616"/>
                            <mxPoint x="890" y="636"/>
                        </Array>
                    </mxGeometry>
                </mxCell>
                <mxCell id="7-28SWe_pGGK2TZbxK85-57" value="Cria Objeto Paciente com cpf, nome e dataNascimento" style="edgeLabel;html=1;align=center;verticalAlign=middle;resizable=0;points=[];" vertex="1" connectable="0" parent="7-28SWe_pGGK2TZbxK85-56">
                    <mxGeometry x="-0.381" y="1" relative="1" as="geometry">
                        <mxPoint x="22" y="8" as="offset"/>
                    </mxGeometry>
                </mxCell>
                <mxCell id="7rCypQubDoip1W6Q_EGZ-5" value="PacienteView" style="shape=umlLifeline;perimeter=lifelinePerimeter;whiteSpace=wrap;html=1;container=1;collapsible=0;recursiveResize=0;outlineConnect=0;" vertex="1" parent="1">
                    <mxGeometry x="1300" y="80" width="140" height="840" as="geometry"/>
                </mxCell>
            </root>
        </mxGraphModel>
    </diagram>
</mxfile>